<?xml version="1.0" standalone="no"?>
<!DOCTYPE svg PUBLIC "-//W3C//DTD SVG 20010904//EN"
 "http://www.w3.org/TR/2001/REC-SVG-20010904/DTD/svg10.dtd">
<svg version="1.0" xmlns="http://www.w3.org/2000/svg"
 width="561.000000pt" height="561.000000pt" viewBox="0 0 561.000000 561.000000"
 preserveAspectRatio="xMidYMid meet">
<metadata>
Created by potrace 1.11, written by Peter Selinger 2001-2013
</metadata>
<g transform="translate(0.000000,561.000000) scale(0.100000,-0.100000)"
fill="#000000" stroke="none">
<path d="M2606 5491 c-4 -6 -13 -8 -21 -4 -9 3 -23 -1 -32 -8 -14 -12 -15 -12
-9 -1 7 12 4 12 -14 2 -12 -6 -24 -9 -27 -6 -3 3 -14 1 -24 -4 -11 -7 -20 -7
-24 0 -3 5 -12 7 -20 4 -8 -4 -13 -10 -10 -14 3 -5 -18 -7 -47 -6 -29 2 -59
-1 -65 -6 -7 -6 -19 -8 -28 -5 -8 4 -17 1 -21 -4 -3 -6 -15 -9 -25 -6 -11 3
-19 1 -19 -4 0 -4 -7 -5 -17 -2 -10 4 -14 2 -10 -4 4 -6 -3 -8 -19 -5 -15 3
-32 -2 -43 -12 -12 -11 -21 -13 -25 -7 -4 6 -13 8 -21 5 -8 -4 -13 -10 -10
-14 3 -5 -6 -7 -20 -4 -14 2 -25 0 -25 -6 0 -6 -5 -8 -10 -5 -12 7 -100 -24
-100 -35 0 -4 -10 -7 -22 -6 -13 1 -39 -6 -58 -16 -19 -10 -40 -18 -46 -18 -6
0 -26 -8 -45 -17 -19 -10 -40 -18 -48 -19 -8 -2 -17 -8 -21 -14 -4 -7 -10 -11
-14 -10 -3 0 -27 -8 -52 -20 -26 -11 -50 -20 -55 -20 -5 0 -9 -4 -9 -10 0 -5
-11 -10 -25 -10 -13 0 -28 -6 -32 -14 -4 -7 -24 -21 -43 -31 -42 -22 -61 -40
-52 -50 4 -5 1 -5 -6 -1 -7 4 -32 -6 -58 -23 -25 -17 -47 -31 -49 -31 -8 0
-129 -94 -153 -118 -12 -13 -22 -20 -22 -16 0 4 -13 -5 -30 -21 -16 -15 -27
-33 -23 -38 3 -6 1 -7 -5 -3 -6 3 -14 1 -17 -4 -4 -6 -25 -25 -47 -41 -23 -16
-38 -29 -35 -29 3 0 -18 -24 -46 -53 -115 -119 -210 -230 -207 -242 1 -4 -8
-15 -19 -24 -12 -10 -21 -22 -21 -27 0 -5 -9 -16 -19 -24 -11 -7 -18 -17 -15
-22 3 -4 0 -8 -5 -8 -6 0 -11 -7 -11 -15 0 -8 -5 -15 -11 -15 -5 0 -7 -4 -4
-10 3 -5 1 -10 -4 -10 -6 0 -11 -6 -11 -13 0 -7 -9 -18 -20 -25 -12 -7 -18
-17 -15 -22 4 -6 -1 -13 -9 -16 -9 -3 -13 -10 -10 -15 3 -5 0 -9 -5 -9 -6 0
-11 -9 -11 -20 0 -11 -7 -23 -15 -26 -8 -4 -13 -10 -10 -14 3 -5 0 -12 -7 -17
-19 -12 -40 -52 -33 -63 4 -6 3 -10 -2 -10 -12 0 -44 -60 -37 -71 3 -5 0 -9
-6 -9 -7 0 -10 -7 -7 -14 4 -11 1 -13 -10 -9 -12 5 -15 2 -10 -10 4 -10 2 -17
-5 -17 -6 0 -9 -3 -5 -6 3 -4 -1 -13 -9 -21 -8 -8 -12 -19 -9 -24 4 -5 1 -9
-5 -9 -7 0 -10 -7 -6 -15 3 -8 1 -15 -4 -15 -6 0 -10 -9 -10 -19 0 -11 -5 -23
-10 -26 -6 -4 -8 -11 -5 -16 4 -5 2 -9 -3 -9 -5 0 -9 -6 -10 -12 -2 -23 -8
-43 -20 -64 -6 -12 -12 -38 -14 -58 -1 -20 -5 -36 -8 -36 -9 0 -29 -58 -22
-65 14 -13 9 -33 -6 -28 -12 5 -14 1 -10 -15 4 -13 0 -23 -8 -26 -10 -4 -12
-14 -8 -31 4 -16 2 -25 -5 -25 -9 0 -9 -5 -1 -20 6 -11 8 -25 5 -30 -3 -5 -1
-11 5 -15 17 -10 12 -38 -6 -31 -11 4 -18 -1 -21 -14 -3 -11 -10 -20 -15 -20
-6 0 -8 -13 -4 -30 4 -22 2 -29 -5 -24 -7 4 -10 1 -7 -7 3 -8 1 -22 -4 -31 -6
-12 -5 -18 2 -18 7 0 8 -6 2 -17 -5 -10 -6 -29 -2 -43 3 -15 1 -30 -6 -38 -7
-6 -11 -24 -8 -38 3 -14 -1 -33 -8 -42 -10 -12 -10 -14 -1 -8 10 5 12 -7 8
-51 -8 -89 -9 -159 -2 -170 4 -6 6 -50 5 -99 0 -48 3 -89 8 -91 6 -2 7 -29 4
-63 -3 -34 -2 -61 4 -63 5 -2 11 -19 13 -38 8 -89 16 -129 23 -129 5 0 6 -16
3 -37 -5 -28 -3 -34 7 -28 9 6 10 2 5 -15 -6 -17 -4 -21 6 -14 12 6 12 5 0 -9
-9 -11 -10 -17 -2 -17 6 0 11 -12 11 -26 0 -14 4 -23 9 -20 4 3 7 -8 5 -24 -2
-16 1 -32 6 -35 6 -4 8 -11 5 -16 -4 -5 -2 -9 2 -9 5 0 10 -12 11 -26 1 -15 7
-33 13 -40 6 -7 8 -18 5 -23 -4 -5 -2 -12 4 -16 6 -4 8 -11 5 -16 -4 -5 -1 -9
4 -9 6 0 11 -12 11 -28 0 -15 7 -37 15 -48 8 -12 12 -24 8 -27 -3 -4 1 -9 10
-13 13 -5 14 -10 6 -25 -7 -14 -7 -19 3 -17 6 2 13 -1 14 -7 5 -29 17 -55 26
-55 6 0 8 -7 4 -15 -3 -8 -1 -15 4 -15 6 0 10 -6 10 -12 0 -7 11 -35 25 -62
13 -27 22 -53 19 -58 -3 -4 -1 -8 5 -8 5 0 24 -27 42 -59 18 -33 38 -57 43
-54 6 4 8 3 4 -2 -9 -10 19 -64 46 -88 11 -10 14 -15 6 -11 -13 7 -13 6 0 -12
8 -10 22 -24 30 -31 8 -6 12 -15 8 -18 -8 -9 16 -35 32 -35 6 0 8 -4 5 -10 -3
-5 -3 -10 2 -10 10 0 59 -71 56 -82 -2 -4 3 -8 11 -8 8 0 17 -7 20 -16 3 -8
11 -12 17 -8 7 4 9 3 6 -3 -8 -13 27 -46 37 -36 4 4 5 1 2 -7 -6 -16 47 -83
58 -73 3 3 6 1 6 -6 0 -15 25 -41 39 -41 5 0 13 -9 16 -20 3 -11 10 -20 14
-20 4 0 36 -27 71 -59 35 -33 68 -57 72 -55 4 3 8 -2 8 -10 0 -17 34 -39 44
-29 3 3 6 -2 6 -12 0 -10 3 -16 6 -12 3 3 14 -2 23 -11 33 -31 61 -52 70 -52
5 0 11 -4 13 -8 6 -15 125 -91 132 -85 3 4 6 2 6 -4 0 -5 12 -15 26 -21 14 -7
22 -17 19 -22 -4 -6 -3 -9 2 -8 10 3 56 -13 63 -21 11 -13 51 -31 59 -26 5 3
11 -2 15 -10 3 -8 13 -15 21 -15 10 0 13 -5 9 -12 -4 -6 -3 -8 3 -5 6 4 38 -7
71 -23 34 -17 66 -30 72 -30 6 0 9 -4 6 -9 -4 -5 7 -7 23 -5 19 3 30 0 34 -9
3 -8 22 -17 41 -21 20 -4 36 -12 36 -18 0 -6 7 -5 17 3 11 10 14 10 9 2 -6
-12 11 -18 37 -14 4 0 7 -3 7 -7 0 -7 19 -12 62 -15 9 -1 14 -5 12 -9 -3 -4 4
-9 15 -9 12 -1 30 -2 40 -3 11 0 23 -5 28 -10 5 -5 2 -6 -6 -1 -10 6 -12 4 -7
-4 6 -9 13 -8 28 6 11 9 19 13 18 8 -5 -23 1 -36 12 -29 20 13 49 12 39 0 -7
-8 2 -10 30 -8 23 3 39 0 39 -6 0 -6 8 -11 18 -11 23 0 87 -8 137 -17 22 -4
55 -7 73 -8 17 0 32 -3 32 -6 0 -4 38 -6 84 -6 46 1 82 -3 79 -8 -3 -4 16 -6
42 -3 26 4 56 2 66 -4 11 -5 19 -6 19 -2 0 5 30 10 68 11 223 10 269 14 322
28 14 4 36 8 50 10 14 1 39 5 55 8 17 4 54 10 82 15 29 6 58 13 64 17 7 4 24
9 38 10 52 8 63 11 69 20 4 5 17 9 30 8 12 -1 22 3 22 7 0 5 3 8 8 7 11 -2 66
14 78 24 7 5 16 8 20 7 5 -2 36 10 69 26 33 15 69 29 79 30 11 1 22 7 24 13 2
7 12 12 22 12 9 0 23 7 30 15 7 8 15 13 19 11 3 -2 20 5 36 15 17 10 63 35
103 56 116 60 122 64 122 73 0 4 12 13 28 19 40 17 64 33 97 63 16 15 32 25
36 23 4 -3 9 2 13 10 3 8 11 15 18 15 17 0 48 36 40 46 -4 4 -2 4 5 0 6 -3 15
-1 20 7 4 7 20 20 35 30 32 20 102 84 161 146 23 24 65 67 92 96 54 57 86 95
147 177 22 29 49 66 61 81 12 16 33 47 46 70 13 23 28 45 34 49 6 3 12 13 13
21 1 8 17 39 36 68 18 30 42 72 53 94 11 22 22 42 25 45 3 3 6 14 8 24 2 10
10 25 17 33 8 7 17 23 20 36 4 12 15 41 26 64 10 24 19 50 19 59 0 9 9 31 19
48 18 29 37 92 33 109 -1 4 2 7 7 7 7 0 20 43 21 65 0 3 6 18 15 35 8 16 15
42 15 59 0 16 5 33 11 37 6 3 9 14 6 23 -2 10 2 26 9 35 7 10 10 24 7 32 -3 8
-1 14 5 14 5 0 7 11 5 24 -3 13 0 33 6 45 9 16 9 21 -1 21 -10 0 -10 3 1 9 8
5 11 16 8 25 -3 8 -1 18 4 22 6 3 9 15 6 25 -3 10 -1 22 4 25 6 4 6 11 0 18
-6 7 -8 15 -6 18 10 10 16 82 18 201 0 74 5 117 11 117 6 0 5 4 -2 9 -8 4 -13
11 -13 15 1 3 0 7 0 9 -1 1 -3 31 -4 67 -2 36 -5 73 -7 83 -3 10 -1 40 2 67 4
28 3 50 -1 50 -11 0 -17 50 -7 56 5 3 5 11 -1 18 -6 7 -8 16 -4 19 3 4 2 7 -4
7 -6 0 -11 24 -12 52 0 29 -5 54 -11 56 -8 3 -7 8 0 17 8 10 7 17 -3 26 -8 8
-12 21 -9 31 2 10 0 24 -5 31 -5 6 -10 28 -12 47 -2 19 -7 43 -13 53 -5 10
-12 30 -14 44 -7 38 -58 180 -88 245 -25 55 -61 93 -78 82 -4 -3 -7 6 -6 20 1
13 5 23 9 20 4 -2 10 0 14 6 3 5 2 10 -2 10 -5 0 -19 27 -32 60 -13 33 -27 60
-32 60 -6 0 -28 49 -28 65 0 3 -5 11 -11 18 -41 48 -49 61 -44 68 3 5 0 9 -5
9 -6 0 -11 6 -11 14 0 8 -3 16 -7 18 -5 2 -24 27 -43 55 -19 29 -38 53 -42 53
-5 0 -8 6 -8 14 0 8 -15 29 -32 47 -18 18 -31 33 -29 33 10 2 -25 46 -37 46
-7 0 -11 4 -7 9 3 5 -5 17 -17 25 -12 9 -19 16 -15 16 4 0 -3 11 -15 24 -13
13 -27 21 -32 18 -5 -3 -6 0 -2 6 7 12 -38 62 -56 62 -6 0 -9 2 -6 5 6 6 -138
155 -150 155 -4 1 -25 19 -47 40 -22 22 -43 40 -48 40 -4 0 -18 11 -31 25 -13
13 -25 23 -27 21 -2 -3 -22 11 -44 30 -44 38 -60 42 -69 18 -9 -23 -29 -5 -23
22 3 16 0 24 -9 24 -8 0 -19 9 -26 20 -7 11 -21 20 -30 20 -10 0 -18 5 -18 10
0 6 -7 10 -15 10 -8 0 -15 4 -15 8 0 4 -17 14 -37 21 -21 7 -53 25 -72 39 -19
14 -31 19 -26 11 5 -9 1 -7 -12 4 -11 9 -25 17 -32 17 -7 0 -10 3 -8 8 3 4 -6
8 -20 9 -14 0 -28 5 -32 10 -7 9 -69 34 -88 36 -7 0 -13 4 -13 8 0 4 -7 10
-16 13 -10 4 -13 2 -9 -7 4 -6 -1 -3 -10 8 -9 11 -18 19 -20 18 -14 -8 -35 -2
-30 8 4 6 1 9 -6 7 -20 -4 -109 23 -104 32 2 4 -6 7 -18 7 -31 0 -87 14 -92
23 -3 5 -14 6 -25 3 -11 -3 -20 -1 -20 5 0 5 -25 13 -55 17 -30 3 -57 11 -61
16 -3 5 -10 7 -15 3 -5 -3 -17 0 -26 8 -12 9 -15 9 -9 1 4 -7 2 -13 -3 -13 -6
0 -11 5 -11 10 0 6 -3 9 -7 9 -5 -1 -10 0 -13 1 -9 3 -74 9 -102 10 -16 0 -28
4 -28 10 0 7 -6 8 -19 1 -10 -6 -22 -7 -26 -3 -3 4 -28 7 -54 8 -26 0 -53 4
-59 8 -7 4 -12 3 -12 -2 0 -5 -15 -8 -32 -7 -18 1 -43 -2 -55 -6 -15 -6 -27
-4 -37 7 -12 11 -20 12 -35 4 -12 -6 -22 -6 -25 -1 -4 5 -18 5 -35 -2 -16 -6
-36 -7 -47 -2 -27 12 -38 12 -46 1 -4 -6 -12 -5 -21 3 -10 8 -17 8 -21 2z"/>
</g>
</svg>
